<mxfile host="app.diagrams.net" modified="2022-08-08T07:02:57.070Z" agent="5.0 (Macintosh; Intel Mac OS X 10_15_7) AppleWebKit/537.36 (KHTML, like Gecko) Chrome/103.0.0.0 Safari/537.36" etag="DIiwt7rT2da_xI8Q2aXZ" version="20.2.3" type="github">
  <diagram id="OkfbAYmFlCsFUz27nmYc" name="第 1 页">
    <mxGraphModel dx="1351" dy="776" grid="1" gridSize="10" guides="1" tooltips="1" connect="1" arrows="1" fold="1" page="1" pageScale="1" pageWidth="3300" pageHeight="4681" math="0" shadow="0">
      <root>
        <mxCell id="0" />
        <mxCell id="1" parent="0" />
        <mxCell id="Im89usUlu3mwiEkNjQvP-6" value="查看是否提交过意见反馈" style="rhombus;whiteSpace=wrap;html=1;" parent="1" vertex="1">
          <mxGeometry x="440" y="460" width="190" height="80" as="geometry" />
        </mxCell>
        <mxCell id="Im89usUlu3mwiEkNjQvP-7" value="" style="endArrow=classic;html=1;rounded=0;entryX=0;entryY=0.5;entryDx=0;entryDy=0;exitX=1;exitY=0.5;exitDx=0;exitDy=0;" parent="1" target="Im89usUlu3mwiEkNjQvP-6" edge="1">
          <mxGeometry width="50" height="50" relative="1" as="geometry">
            <mxPoint x="330" y="500" as="sourcePoint" />
            <mxPoint x="140" y="300" as="targetPoint" />
          </mxGeometry>
        </mxCell>
        <mxCell id="Im89usUlu3mwiEkNjQvP-9" value="有 意见反馈详情" style="rounded=0;whiteSpace=wrap;html=1;" parent="1" vertex="1">
          <mxGeometry x="470" y="350" width="120" height="60" as="geometry" />
        </mxCell>
        <mxCell id="Im89usUlu3mwiEkNjQvP-10" value="" style="endArrow=classic;html=1;rounded=0;entryX=0.5;entryY=1;entryDx=0;entryDy=0;" parent="1" target="Im89usUlu3mwiEkNjQvP-9" edge="1">
          <mxGeometry width="50" height="50" relative="1" as="geometry">
            <mxPoint x="530" y="460" as="sourcePoint" />
            <mxPoint x="580" y="410" as="targetPoint" />
          </mxGeometry>
        </mxCell>
        <mxCell id="Im89usUlu3mwiEkNjQvP-45" value="是" style="edgeLabel;html=1;align=center;verticalAlign=middle;resizable=0;points=[];" parent="Im89usUlu3mwiEkNjQvP-10" vertex="1" connectable="0">
          <mxGeometry x="-0.2" y="1" relative="1" as="geometry">
            <mxPoint as="offset" />
          </mxGeometry>
        </mxCell>
        <mxCell id="Im89usUlu3mwiEkNjQvP-11" value="回显意见反馈&lt;br&gt;(评分 + 意见反馈详情)" style="rounded=0;whiteSpace=wrap;html=1;" parent="1" vertex="1">
          <mxGeometry x="470" y="220" width="120" height="60" as="geometry" />
        </mxCell>
        <mxCell id="Im89usUlu3mwiEkNjQvP-12" value="" style="endArrow=classic;html=1;rounded=0;exitX=0.5;exitY=0;exitDx=0;exitDy=0;" parent="1" source="Im89usUlu3mwiEkNjQvP-9" edge="1">
          <mxGeometry width="50" height="50" relative="1" as="geometry">
            <mxPoint x="520" y="350" as="sourcePoint" />
            <mxPoint x="530" y="280" as="targetPoint" />
          </mxGeometry>
        </mxCell>
        <mxCell id="Im89usUlu3mwiEkNjQvP-13" value="没有 意见反馈详情" style="rounded=0;whiteSpace=wrap;html=1;" parent="1" vertex="1">
          <mxGeometry x="475" y="600" width="120" height="60" as="geometry" />
        </mxCell>
        <mxCell id="Im89usUlu3mwiEkNjQvP-14" value="" style="endArrow=classic;html=1;rounded=0;exitX=0.5;exitY=1;exitDx=0;exitDy=0;" parent="1" source="Im89usUlu3mwiEkNjQvP-6" edge="1">
          <mxGeometry width="50" height="50" relative="1" as="geometry">
            <mxPoint x="529" y="540" as="sourcePoint" />
            <mxPoint x="535" y="600" as="targetPoint" />
          </mxGeometry>
        </mxCell>
        <mxCell id="Im89usUlu3mwiEkNjQvP-46" value="否" style="edgeLabel;html=1;align=center;verticalAlign=middle;resizable=0;points=[];" parent="Im89usUlu3mwiEkNjQvP-14" vertex="1" connectable="0">
          <mxGeometry x="-0.2" y="-1" relative="1" as="geometry">
            <mxPoint as="offset" />
          </mxGeometry>
        </mxCell>
        <mxCell id="Im89usUlu3mwiEkNjQvP-17" value="" style="endArrow=classic;html=1;rounded=0;" parent="1" edge="1">
          <mxGeometry width="50" height="50" relative="1" as="geometry">
            <mxPoint x="534.5" y="660" as="sourcePoint" />
            <mxPoint x="534.5" y="730" as="targetPoint" />
          </mxGeometry>
        </mxCell>
        <mxCell id="Im89usUlu3mwiEkNjQvP-19" value="&lt;meta charset=&quot;utf-8&quot;&gt;&lt;span style=&quot;color: rgb(0, 0, 0); font-family: Helvetica; font-size: 12px; font-style: normal; font-variant-ligatures: normal; font-variant-caps: normal; font-weight: 400; letter-spacing: normal; orphans: 2; text-align: center; text-indent: 0px; text-transform: none; widows: 2; word-spacing: 0px; -webkit-text-stroke-width: 0px; background-color: rgb(248, 249, 250); text-decoration-thickness: initial; text-decoration-style: initial; text-decoration-color: initial; float: none; display: inline !important;&quot;&gt;查看是否提交过草稿&lt;/span&gt;" style="rhombus;whiteSpace=wrap;html=1;" parent="1" vertex="1">
          <mxGeometry x="450.38" y="730" width="169.25" height="80" as="geometry" />
        </mxCell>
        <mxCell id="Im89usUlu3mwiEkNjQvP-23" value="没有 草稿详情" style="rounded=0;whiteSpace=wrap;html=1;" parent="1" vertex="1">
          <mxGeometry x="689" y="740" width="120" height="60" as="geometry" />
        </mxCell>
        <mxCell id="Im89usUlu3mwiEkNjQvP-24" value="有 草稿详情" style="rounded=0;whiteSpace=wrap;html=1;" parent="1" vertex="1">
          <mxGeometry x="475.01" y="860" width="120" height="60" as="geometry" />
        </mxCell>
        <mxCell id="Im89usUlu3mwiEkNjQvP-25" value="" style="endArrow=classic;html=1;rounded=0;" parent="1" edge="1">
          <mxGeometry width="50" height="50" relative="1" as="geometry">
            <mxPoint x="537" y="810" as="sourcePoint" />
            <mxPoint x="537" y="860" as="targetPoint" />
          </mxGeometry>
        </mxCell>
        <mxCell id="Im89usUlu3mwiEkNjQvP-47" value="是" style="edgeLabel;html=1;align=center;verticalAlign=middle;resizable=0;points=[];" parent="Im89usUlu3mwiEkNjQvP-25" vertex="1" connectable="0">
          <mxGeometry x="-0.0033" y="-1" relative="1" as="geometry">
            <mxPoint as="offset" />
          </mxGeometry>
        </mxCell>
        <mxCell id="Im89usUlu3mwiEkNjQvP-26" value="" style="endArrow=classic;html=1;rounded=0;" parent="1" edge="1">
          <mxGeometry width="50" height="50" relative="1" as="geometry">
            <mxPoint x="619.63" y="770" as="sourcePoint" />
            <mxPoint x="689" y="770" as="targetPoint" />
          </mxGeometry>
        </mxCell>
        <mxCell id="Im89usUlu3mwiEkNjQvP-48" value="否" style="edgeLabel;html=1;align=center;verticalAlign=middle;resizable=0;points=[];" parent="Im89usUlu3mwiEkNjQvP-26" vertex="1" connectable="0">
          <mxGeometry x="-0.0475" y="-2" relative="1" as="geometry">
            <mxPoint as="offset" />
          </mxGeometry>
        </mxCell>
        <mxCell id="Im89usUlu3mwiEkNjQvP-27" value="" style="endArrow=classic;html=1;rounded=0;exitX=0.5;exitY=1;exitDx=0;exitDy=0;" parent="1" source="Im89usUlu3mwiEkNjQvP-24" target="Im89usUlu3mwiEkNjQvP-28" edge="1">
          <mxGeometry width="50" height="50" relative="1" as="geometry">
            <mxPoint x="550" y="950" as="sourcePoint" />
            <mxPoint x="644" y="950" as="targetPoint" />
          </mxGeometry>
        </mxCell>
        <mxCell id="Im89usUlu3mwiEkNjQvP-28" value="回显草稿&lt;br&gt;(评分+ 意见反馈详情)" style="rounded=0;whiteSpace=wrap;html=1;" parent="1" vertex="1">
          <mxGeometry x="475.01" y="970" width="120" height="60" as="geometry" />
        </mxCell>
        <mxCell id="Im89usUlu3mwiEkNjQvP-29" value="" style="endArrow=classic;html=1;rounded=0;" parent="1" edge="1">
          <mxGeometry width="50" height="50" relative="1" as="geometry">
            <mxPoint x="809" y="770" as="sourcePoint" />
            <mxPoint x="889" y="770" as="targetPoint" />
          </mxGeometry>
        </mxCell>
        <mxCell id="Im89usUlu3mwiEkNjQvP-30" value="草稿操作 / 直接提交" style="rhombus;whiteSpace=wrap;html=1;" parent="1" vertex="1">
          <mxGeometry x="889" y="730" width="150" height="80" as="geometry" />
        </mxCell>
        <mxCell id="Im89usUlu3mwiEkNjQvP-31" value="" style="endArrow=classic;html=1;rounded=0;" parent="1" edge="1">
          <mxGeometry width="50" height="50" relative="1" as="geometry">
            <mxPoint x="1039" y="770" as="sourcePoint" />
            <mxPoint x="1129" y="770" as="targetPoint" />
          </mxGeometry>
        </mxCell>
        <mxCell id="Im89usUlu3mwiEkNjQvP-49" value="直接提交" style="edgeLabel;html=1;align=center;verticalAlign=middle;resizable=0;points=[];" parent="Im89usUlu3mwiEkNjQvP-31" vertex="1" connectable="0">
          <mxGeometry x="-0.186" y="4" relative="1" as="geometry">
            <mxPoint as="offset" />
          </mxGeometry>
        </mxCell>
        <mxCell id="Im89usUlu3mwiEkNjQvP-33" value="直接提交" style="rounded=0;whiteSpace=wrap;html=1;" parent="1" vertex="1">
          <mxGeometry x="1129" y="740" width="120" height="60" as="geometry" />
        </mxCell>
        <mxCell id="Im89usUlu3mwiEkNjQvP-36" value="" style="endArrow=classic;html=1;rounded=0;" parent="1" edge="1">
          <mxGeometry width="50" height="50" relative="1" as="geometry">
            <mxPoint x="963.5" y="810" as="sourcePoint" />
            <mxPoint x="964" y="860" as="targetPoint" />
          </mxGeometry>
        </mxCell>
        <mxCell id="Im89usUlu3mwiEkNjQvP-50" value="草稿操作" style="edgeLabel;html=1;align=center;verticalAlign=middle;resizable=0;points=[];" parent="Im89usUlu3mwiEkNjQvP-36" vertex="1" connectable="0">
          <mxGeometry x="-0.322" relative="1" as="geometry">
            <mxPoint as="offset" />
          </mxGeometry>
        </mxCell>
        <mxCell id="Im89usUlu3mwiEkNjQvP-40" value="是否保存草稿" style="rhombus;whiteSpace=wrap;html=1;" parent="1" vertex="1">
          <mxGeometry x="889" y="860" width="150" height="80" as="geometry" />
        </mxCell>
        <mxCell id="Im89usUlu3mwiEkNjQvP-41" value="" style="endArrow=classic;html=1;rounded=0;" parent="1" edge="1">
          <mxGeometry width="50" height="50" relative="1" as="geometry">
            <mxPoint x="1039" y="900" as="sourcePoint" />
            <mxPoint x="1129" y="900" as="targetPoint" />
          </mxGeometry>
        </mxCell>
        <mxCell id="Im89usUlu3mwiEkNjQvP-52" value="否" style="edgeLabel;html=1;align=center;verticalAlign=middle;resizable=0;points=[];" parent="Im89usUlu3mwiEkNjQvP-41" vertex="1" connectable="0">
          <mxGeometry x="-0.2795" y="3" relative="1" as="geometry">
            <mxPoint as="offset" />
          </mxGeometry>
        </mxCell>
        <mxCell id="Im89usUlu3mwiEkNjQvP-42" value="是 保存草稿&lt;br&gt;(评分 + 意见反馈详情)" style="rounded=0;whiteSpace=wrap;html=1;" parent="1" vertex="1">
          <mxGeometry x="904" y="990" width="120" height="60" as="geometry" />
        </mxCell>
        <mxCell id="Im89usUlu3mwiEkNjQvP-43" value="否 不保存草稿" style="rounded=0;whiteSpace=wrap;html=1;" parent="1" vertex="1">
          <mxGeometry x="1129" y="870" width="120" height="60" as="geometry" />
        </mxCell>
        <mxCell id="Im89usUlu3mwiEkNjQvP-44" value="" style="endArrow=classic;html=1;rounded=0;" parent="1" edge="1">
          <mxGeometry width="50" height="50" relative="1" as="geometry">
            <mxPoint x="963.5" y="940" as="sourcePoint" />
            <mxPoint x="964" y="990" as="targetPoint" />
          </mxGeometry>
        </mxCell>
        <mxCell id="Im89usUlu3mwiEkNjQvP-51" value="是" style="edgeLabel;html=1;align=center;verticalAlign=middle;resizable=0;points=[];" parent="Im89usUlu3mwiEkNjQvP-44" vertex="1" connectable="0">
          <mxGeometry x="-0.3013" y="-1" relative="1" as="geometry">
            <mxPoint as="offset" />
          </mxGeometry>
        </mxCell>
        <mxCell id="Im89usUlu3mwiEkNjQvP-53" value="已提交列表中&lt;br&gt;多一条数据" style="rounded=0;whiteSpace=wrap;html=1;" parent="1" vertex="1">
          <mxGeometry x="1360" y="740" width="120" height="60" as="geometry" />
        </mxCell>
        <mxCell id="Im89usUlu3mwiEkNjQvP-54" value="草稿箱中&lt;br&gt;多一条数据" style="rounded=0;whiteSpace=wrap;html=1;" parent="1" vertex="1">
          <mxGeometry x="904" y="1100" width="120" height="60" as="geometry" />
        </mxCell>
        <mxCell id="Im89usUlu3mwiEkNjQvP-55" value="" style="endArrow=classic;html=1;rounded=0;entryX=0;entryY=0.5;entryDx=0;entryDy=0;" parent="1" target="Im89usUlu3mwiEkNjQvP-53" edge="1">
          <mxGeometry width="50" height="50" relative="1" as="geometry">
            <mxPoint x="1249" y="770" as="sourcePoint" />
            <mxPoint x="1340" y="770" as="targetPoint" />
          </mxGeometry>
        </mxCell>
        <mxCell id="Im89usUlu3mwiEkNjQvP-56" value="" style="endArrow=classic;html=1;rounded=0;entryX=0.5;entryY=0;entryDx=0;entryDy=0;exitX=0.5;exitY=1;exitDx=0;exitDy=0;" parent="1" source="Im89usUlu3mwiEkNjQvP-42" target="Im89usUlu3mwiEkNjQvP-54" edge="1">
          <mxGeometry width="50" height="50" relative="1" as="geometry">
            <mxPoint x="960" y="1050" as="sourcePoint" />
            <mxPoint x="1010" y="1000" as="targetPoint" />
          </mxGeometry>
        </mxCell>
        <mxCell id="Im89usUlu3mwiEkNjQvP-58" value="" style="endArrow=classic;html=1;rounded=0;" parent="1" edge="1">
          <mxGeometry width="50" height="50" relative="1" as="geometry">
            <mxPoint x="960" y="1160" as="sourcePoint" />
            <mxPoint x="960" y="1220" as="targetPoint" />
          </mxGeometry>
        </mxCell>
        <mxCell id="Im89usUlu3mwiEkNjQvP-59" value="&lt;b&gt;2. 从草稿箱中这个草稿中进入&lt;/b&gt;" style="edgeLabel;html=1;align=center;verticalAlign=middle;resizable=0;points=[];" parent="Im89usUlu3mwiEkNjQvP-58" vertex="1" connectable="0">
          <mxGeometry x="0.0276" y="1" relative="1" as="geometry">
            <mxPoint as="offset" />
          </mxGeometry>
        </mxCell>
        <mxCell id="Im89usUlu3mwiEkNjQvP-60" value="是否之前这个活动提交过意见反馈" style="rhombus;whiteSpace=wrap;html=1;" parent="1" vertex="1">
          <mxGeometry x="846" y="1220" width="236" height="80" as="geometry" />
        </mxCell>
        <mxCell id="Im89usUlu3mwiEkNjQvP-61" value="" style="endArrow=classic;html=1;rounded=0;" parent="1" edge="1">
          <mxGeometry width="50" height="50" relative="1" as="geometry">
            <mxPoint x="963.71" y="1300" as="sourcePoint" />
            <mxPoint x="963.71" y="1370" as="targetPoint" />
          </mxGeometry>
        </mxCell>
        <mxCell id="Im89usUlu3mwiEkNjQvP-62" value="是" style="edgeLabel;html=1;align=center;verticalAlign=middle;resizable=0;points=[];" parent="Im89usUlu3mwiEkNjQvP-61" vertex="1" connectable="0">
          <mxGeometry x="-0.2571" relative="1" as="geometry">
            <mxPoint as="offset" />
          </mxGeometry>
        </mxCell>
        <mxCell id="Im89usUlu3mwiEkNjQvP-63" value="不能直接提交" style="rounded=0;whiteSpace=wrap;html=1;" parent="1" vertex="1">
          <mxGeometry x="904" y="1370" width="120" height="60" as="geometry" />
        </mxCell>
        <mxCell id="Im89usUlu3mwiEkNjQvP-64" value="" style="endArrow=classic;html=1;rounded=0;entryX=0;entryY=0.5;entryDx=0;entryDy=0;" parent="1" target="Im89usUlu3mwiEkNjQvP-65" edge="1">
          <mxGeometry width="50" height="50" relative="1" as="geometry">
            <mxPoint x="1082" y="1260" as="sourcePoint" />
            <mxPoint x="1160" y="1260" as="targetPoint" />
          </mxGeometry>
        </mxCell>
        <mxCell id="Im89usUlu3mwiEkNjQvP-66" value="否" style="edgeLabel;html=1;align=center;verticalAlign=middle;resizable=0;points=[];" parent="Im89usUlu3mwiEkNjQvP-64" vertex="1" connectable="0">
          <mxGeometry x="-0.085" y="-1" relative="1" as="geometry">
            <mxPoint as="offset" />
          </mxGeometry>
        </mxCell>
        <mxCell id="Im89usUlu3mwiEkNjQvP-65" value="可以直接提交" style="rounded=0;whiteSpace=wrap;html=1;" parent="1" vertex="1">
          <mxGeometry x="1360" y="1230" width="120" height="60" as="geometry" />
        </mxCell>
        <mxCell id="Im89usUlu3mwiEkNjQvP-67" value="" style="endArrow=classic;html=1;rounded=0;entryX=0.5;entryY=1;entryDx=0;entryDy=0;" parent="1" target="Im89usUlu3mwiEkNjQvP-53" edge="1">
          <mxGeometry width="50" height="50" relative="1" as="geometry">
            <mxPoint x="1420" y="1230" as="sourcePoint" />
            <mxPoint x="1470" y="1180" as="targetPoint" />
          </mxGeometry>
        </mxCell>
        <mxCell id="Im89usUlu3mwiEkNjQvP-68" value="直接更新反馈" style="rounded=0;whiteSpace=wrap;html=1;" parent="1" vertex="1">
          <mxGeometry x="1770" y="740" width="120" height="60" as="geometry" />
        </mxCell>
        <mxCell id="Im89usUlu3mwiEkNjQvP-69" value="" style="endArrow=classic;html=1;rounded=0;entryX=0;entryY=0.5;entryDx=0;entryDy=0;" parent="1" target="Im89usUlu3mwiEkNjQvP-68" edge="1">
          <mxGeometry width="50" height="50" relative="1" as="geometry">
            <mxPoint x="1480" y="770" as="sourcePoint" />
            <mxPoint x="1530" y="720" as="targetPoint" />
          </mxGeometry>
        </mxCell>
        <mxCell id="Im89usUlu3mwiEkNjQvP-70" value="&lt;b&gt;3. 从已提交的这条意见反馈表进入&lt;/b&gt;" style="edgeLabel;html=1;align=center;verticalAlign=middle;resizable=0;points=[];" parent="Im89usUlu3mwiEkNjQvP-69" vertex="1" connectable="0">
          <mxGeometry x="-0.2077" y="-1" relative="1" as="geometry">
            <mxPoint as="offset" />
          </mxGeometry>
        </mxCell>
        <mxCell id="Im89usUlu3mwiEkNjQvP-71" value="&lt;b style=&quot;color: rgb(0, 0, 0); font-family: Helvetica; font-size: 12px; font-style: normal; font-variant-ligatures: normal; font-variant-caps: normal; letter-spacing: normal; orphans: 2; text-align: center; text-indent: 0px; text-transform: none; widows: 2; word-spacing: 0px; -webkit-text-stroke-width: 0px; background-color: rgb(248, 249, 250); text-decoration-thickness: initial; text-decoration-style: initial; text-decoration-color: initial;&quot;&gt;1. 从活动详情页进入&lt;/b&gt;" style="text;whiteSpace=wrap;html=1;" parent="1" vertex="1">
          <mxGeometry x="240" y="490" width="130" height="40" as="geometry" />
        </mxCell>
        <mxCell id="Im89usUlu3mwiEkNjQvP-72" value="&lt;h1&gt;注意:&lt;/h1&gt;&lt;p&gt;&lt;span style=&quot;font-size: 18px; background-color: initial;&quot;&gt;1. 若为 更新反馈 操作, 则不对评分及原因进行校验, 若是 首次提交, 则需要对评分及原因校验.&amp;nbsp;&lt;/span&gt;&lt;span style=&quot;background-color: initial; font-size: 18px;&quot;&gt;更改之前调用增加意见反馈表还是更新意见反馈表接口的逻辑判断.&lt;/span&gt;&lt;/p&gt;&lt;p&gt;&lt;span style=&quot;background-color: initial; font-size: 18px;&quot;&gt;2. 从活动详情页进入和从意见反馈列表进入, 不同入口底部按钮的处理.&lt;/span&gt;&lt;/p&gt;&lt;p&gt;&lt;span style=&quot;background-color: initial; font-size: 18px;&quot;&gt;3. 保存草稿要对评分及原因进行校验.&lt;/span&gt;&lt;/p&gt;" style="text;html=1;strokeColor=none;fillColor=none;spacing=5;spacingTop=-20;whiteSpace=wrap;overflow=hidden;rounded=0;" parent="1" vertex="1">
          <mxGeometry x="680" y="210" width="540" height="240" as="geometry" />
        </mxCell>
        <mxCell id="Im89usUlu3mwiEkNjQvP-73" value="&lt;font style=&quot;font-size: 28px;&quot;&gt;&lt;b&gt;更改一个活动只能有一个意见反馈表流程&lt;/b&gt;&lt;/font&gt;" style="text;html=1;strokeColor=none;fillColor=none;align=center;verticalAlign=middle;whiteSpace=wrap;rounded=0;fontSize=18;" parent="1" vertex="1">
          <mxGeometry x="430" y="70" width="580" height="30" as="geometry" />
        </mxCell>
      </root>
    </mxGraphModel>
  </diagram>
</mxfile>
